<mxfile host="app.diagrams.net" agent="Mozilla/5.0 (Windows NT 10.0; Win64; x64) AppleWebKit/537.36 (KHTML, like Gecko) Chrome/136.0.0.0 Safari/537.36 Edg/136.0.0.0" version="27.0.9">
  <diagram id="C5RBs43oDa-KdzZeNtuy" name="Page-1">
    <mxGraphModel dx="1039" dy="789" grid="1" gridSize="10" guides="1" tooltips="1" connect="1" arrows="1" fold="1" page="1" pageScale="1" pageWidth="2336" pageHeight="1654" math="0" shadow="0">
      <root>
        <mxCell id="WIyWlLk6GJQsqaUBKTNV-0" />
        <mxCell id="WIyWlLk6GJQsqaUBKTNV-1" parent="WIyWlLk6GJQsqaUBKTNV-0" />
        <mxCell id="LgjgU3-JCQmfCHvSQj05-10" value="" style="rounded=0;whiteSpace=wrap;html=1;" parent="WIyWlLk6GJQsqaUBKTNV-1" vertex="1">
          <mxGeometry x="280" y="80" width="120" height="120" as="geometry" />
        </mxCell>
        <mxCell id="LgjgU3-JCQmfCHvSQj05-11" value="" style="endArrow=none;html=1;rounded=0;entryX=1.002;entryY=0.335;entryDx=0;entryDy=0;entryPerimeter=0;" parent="WIyWlLk6GJQsqaUBKTNV-1" edge="1">
          <mxGeometry width="50" height="50" relative="1" as="geometry">
            <mxPoint x="280" y="110" as="sourcePoint" />
            <mxPoint x="400.24" y="110.20000000000005" as="targetPoint" />
          </mxGeometry>
        </mxCell>
        <mxCell id="LgjgU3-JCQmfCHvSQj05-12" value="Games (id)" style="text;html=1;align=center;verticalAlign=middle;whiteSpace=wrap;rounded=0;" parent="WIyWlLk6GJQsqaUBKTNV-1" vertex="1">
          <mxGeometry x="310" y="80" width="60" height="30" as="geometry" />
        </mxCell>
        <mxCell id="LgjgU3-JCQmfCHvSQj05-14" value="title" style="text;html=1;align=left;verticalAlign=middle;whiteSpace=wrap;rounded=0;" parent="WIyWlLk6GJQsqaUBKTNV-1" vertex="1">
          <mxGeometry x="280" y="110" width="120" height="30" as="geometry" />
        </mxCell>
        <mxCell id="LgjgU3-JCQmfCHvSQj05-26" value="genre" style="text;html=1;align=left;verticalAlign=middle;whiteSpace=wrap;rounded=0;" parent="WIyWlLk6GJQsqaUBKTNV-1" vertex="1">
          <mxGeometry x="280" y="140" width="120" height="30" as="geometry" />
        </mxCell>
        <mxCell id="LgjgU3-JCQmfCHvSQj05-27" value="release_date" style="text;html=1;align=left;verticalAlign=middle;whiteSpace=wrap;rounded=0;" parent="WIyWlLk6GJQsqaUBKTNV-1" vertex="1">
          <mxGeometry x="280" y="170" width="120" height="30" as="geometry" />
        </mxCell>
        <mxCell id="K9G_V0BXVg0M4EAFm6N_-10" value="" style="rounded=0;whiteSpace=wrap;html=1;" parent="WIyWlLk6GJQsqaUBKTNV-1" vertex="1">
          <mxGeometry x="480" y="80" width="120" height="120" as="geometry" />
        </mxCell>
        <mxCell id="K9G_V0BXVg0M4EAFm6N_-11" value="" style="endArrow=none;html=1;rounded=0;entryX=1.002;entryY=0.335;entryDx=0;entryDy=0;entryPerimeter=0;" parent="WIyWlLk6GJQsqaUBKTNV-1" edge="1">
          <mxGeometry width="50" height="50" relative="1" as="geometry">
            <mxPoint x="480" y="110" as="sourcePoint" />
            <mxPoint x="600.24" y="110.20000000000005" as="targetPoint" />
          </mxGeometry>
        </mxCell>
        <mxCell id="K9G_V0BXVg0M4EAFm6N_-12" value="Characters (games_id)&amp;nbsp;" style="text;html=1;align=center;verticalAlign=middle;whiteSpace=wrap;rounded=0;" parent="WIyWlLk6GJQsqaUBKTNV-1" vertex="1">
          <mxGeometry x="510" y="80" width="60" height="30" as="geometry" />
        </mxCell>
        <mxCell id="K9G_V0BXVg0M4EAFm6N_-14" value="name" style="text;html=1;align=left;verticalAlign=middle;whiteSpace=wrap;rounded=0;" parent="WIyWlLk6GJQsqaUBKTNV-1" vertex="1">
          <mxGeometry x="480" y="110" width="120" height="30" as="geometry" />
        </mxCell>
        <mxCell id="K9G_V0BXVg0M4EAFm6N_-15" value="alias" style="text;html=1;align=left;verticalAlign=middle;whiteSpace=wrap;rounded=0;" parent="WIyWlLk6GJQsqaUBKTNV-1" vertex="1">
          <mxGeometry x="480" y="140" width="120" height="30" as="geometry" />
        </mxCell>
        <mxCell id="K9G_V0BXVg0M4EAFm6N_-16" value="role" style="text;html=1;align=left;verticalAlign=middle;whiteSpace=wrap;rounded=0;" parent="WIyWlLk6GJQsqaUBKTNV-1" vertex="1">
          <mxGeometry x="480" y="170" width="120" height="30" as="geometry" />
        </mxCell>
        <mxCell id="LRJpE0YDbChc6pXYvuXD-6" value="" style="endArrow=classic;html=1;rounded=0;" edge="1" parent="WIyWlLk6GJQsqaUBKTNV-1">
          <mxGeometry width="50" height="50" relative="1" as="geometry">
            <mxPoint x="400" y="94.71000000000001" as="sourcePoint" />
            <mxPoint x="480" y="94.71000000000001" as="targetPoint" />
          </mxGeometry>
        </mxCell>
        <mxCell id="LRJpE0YDbChc6pXYvuXD-9" value="" style="rounded=0;whiteSpace=wrap;html=1;" vertex="1" parent="WIyWlLk6GJQsqaUBKTNV-1">
          <mxGeometry x="680" y="80" width="120" height="100" as="geometry" />
        </mxCell>
        <mxCell id="LRJpE0YDbChc6pXYvuXD-10" value="" style="endArrow=none;html=1;rounded=0;entryX=1.002;entryY=0.335;entryDx=0;entryDy=0;entryPerimeter=0;" edge="1" parent="WIyWlLk6GJQsqaUBKTNV-1">
          <mxGeometry width="50" height="50" relative="1" as="geometry">
            <mxPoint x="680" y="110" as="sourcePoint" />
            <mxPoint x="800.24" y="110.20000000000005" as="targetPoint" />
          </mxGeometry>
        </mxCell>
        <mxCell id="LRJpE0YDbChc6pXYvuXD-11" value="Abilities (char_id)" style="text;html=1;align=center;verticalAlign=middle;whiteSpace=wrap;rounded=0;" vertex="1" parent="WIyWlLk6GJQsqaUBKTNV-1">
          <mxGeometry x="710" y="80" width="60" height="30" as="geometry" />
        </mxCell>
        <mxCell id="LRJpE0YDbChc6pXYvuXD-18" value="name" style="text;html=1;align=left;verticalAlign=middle;whiteSpace=wrap;rounded=0;" vertex="1" parent="WIyWlLk6GJQsqaUBKTNV-1">
          <mxGeometry x="680" y="110" width="120" height="30" as="geometry" />
        </mxCell>
        <mxCell id="LRJpE0YDbChc6pXYvuXD-19" value="description" style="text;html=1;align=left;verticalAlign=middle;whiteSpace=wrap;rounded=0;" vertex="1" parent="WIyWlLk6GJQsqaUBKTNV-1">
          <mxGeometry x="680" y="140" width="120" height="30" as="geometry" />
        </mxCell>
        <mxCell id="LRJpE0YDbChc6pXYvuXD-20" value="" style="endArrow=classic;html=1;rounded=0;" edge="1" parent="WIyWlLk6GJQsqaUBKTNV-1">
          <mxGeometry width="50" height="50" relative="1" as="geometry">
            <mxPoint x="600" y="94.5" as="sourcePoint" />
            <mxPoint x="680" y="94.5" as="targetPoint" />
          </mxGeometry>
        </mxCell>
        <mxCell id="LRJpE0YDbChc6pXYvuXD-21" value="" style="rounded=0;whiteSpace=wrap;html=1;" vertex="1" parent="WIyWlLk6GJQsqaUBKTNV-1">
          <mxGeometry x="880" y="80" width="120" height="100" as="geometry" />
        </mxCell>
        <mxCell id="LRJpE0YDbChc6pXYvuXD-22" value="" style="endArrow=none;html=1;rounded=0;entryX=1.002;entryY=0.335;entryDx=0;entryDy=0;entryPerimeter=0;" edge="1" parent="WIyWlLk6GJQsqaUBKTNV-1">
          <mxGeometry width="50" height="50" relative="1" as="geometry">
            <mxPoint x="880" y="110" as="sourcePoint" />
            <mxPoint x="1000.24" y="110.20000000000005" as="targetPoint" />
          </mxGeometry>
        </mxCell>
        <mxCell id="LRJpE0YDbChc6pXYvuXD-23" value="Gear char_id)" style="text;html=1;align=center;verticalAlign=middle;whiteSpace=wrap;rounded=0;" vertex="1" parent="WIyWlLk6GJQsqaUBKTNV-1">
          <mxGeometry x="910" y="80" width="60" height="30" as="geometry" />
        </mxCell>
        <mxCell id="LRJpE0YDbChc6pXYvuXD-24" value="name" style="text;html=1;align=left;verticalAlign=middle;whiteSpace=wrap;rounded=0;" vertex="1" parent="WIyWlLk6GJQsqaUBKTNV-1">
          <mxGeometry x="880" y="110" width="120" height="30" as="geometry" />
        </mxCell>
        <mxCell id="LRJpE0YDbChc6pXYvuXD-25" value="description" style="text;html=1;align=left;verticalAlign=middle;whiteSpace=wrap;rounded=0;" vertex="1" parent="WIyWlLk6GJQsqaUBKTNV-1">
          <mxGeometry x="880" y="140" width="120" height="30" as="geometry" />
        </mxCell>
        <mxCell id="LRJpE0YDbChc6pXYvuXD-26" value="" style="endArrow=classic;html=1;rounded=0;" edge="1" parent="WIyWlLk6GJQsqaUBKTNV-1">
          <mxGeometry width="50" height="50" relative="1" as="geometry">
            <mxPoint x="800" y="94.5" as="sourcePoint" />
            <mxPoint x="880" y="94.5" as="targetPoint" />
          </mxGeometry>
        </mxCell>
        <mxCell id="LRJpE0YDbChc6pXYvuXD-27" value="" style="rounded=0;whiteSpace=wrap;html=1;" vertex="1" parent="WIyWlLk6GJQsqaUBKTNV-1">
          <mxGeometry x="280" y="240" width="120" height="120" as="geometry" />
        </mxCell>
        <mxCell id="LRJpE0YDbChc6pXYvuXD-28" value="" style="endArrow=none;html=1;rounded=0;entryX=1.002;entryY=0.335;entryDx=0;entryDy=0;entryPerimeter=0;" edge="1" parent="WIyWlLk6GJQsqaUBKTNV-1">
          <mxGeometry width="50" height="50" relative="1" as="geometry">
            <mxPoint x="280" y="270" as="sourcePoint" />
            <mxPoint x="400.24" y="270.20000000000005" as="targetPoint" />
          </mxGeometry>
        </mxCell>
        <mxCell id="LRJpE0YDbChc6pXYvuXD-29" value="Locations (id)" style="text;html=1;align=center;verticalAlign=middle;whiteSpace=wrap;rounded=0;" vertex="1" parent="WIyWlLk6GJQsqaUBKTNV-1">
          <mxGeometry x="310" y="240" width="60" height="30" as="geometry" />
        </mxCell>
        <mxCell id="LRJpE0YDbChc6pXYvuXD-30" value="name" style="text;html=1;align=left;verticalAlign=middle;whiteSpace=wrap;rounded=0;" vertex="1" parent="WIyWlLk6GJQsqaUBKTNV-1">
          <mxGeometry x="280" y="270" width="120" height="30" as="geometry" />
        </mxCell>
        <mxCell id="LRJpE0YDbChc6pXYvuXD-31" value="type" style="text;html=1;align=left;verticalAlign=middle;whiteSpace=wrap;rounded=0;" vertex="1" parent="WIyWlLk6GJQsqaUBKTNV-1">
          <mxGeometry x="280" y="300" width="120" height="30" as="geometry" />
        </mxCell>
        <mxCell id="LRJpE0YDbChc6pXYvuXD-32" value="game_id" style="text;html=1;align=left;verticalAlign=middle;whiteSpace=wrap;rounded=0;" vertex="1" parent="WIyWlLk6GJQsqaUBKTNV-1">
          <mxGeometry x="280" y="330" width="120" height="30" as="geometry" />
        </mxCell>
        <mxCell id="LRJpE0YDbChc6pXYvuXD-33" value="" style="endArrow=classic;html=1;rounded=0;" edge="1" parent="WIyWlLk6GJQsqaUBKTNV-1">
          <mxGeometry width="50" height="50" relative="1" as="geometry">
            <mxPoint x="400" y="254.71000000000004" as="sourcePoint" />
            <mxPoint x="480" y="254.71000000000004" as="targetPoint" />
          </mxGeometry>
        </mxCell>
        <mxCell id="LRJpE0YDbChc6pXYvuXD-34" value="" style="rounded=0;whiteSpace=wrap;html=1;" vertex="1" parent="WIyWlLk6GJQsqaUBKTNV-1">
          <mxGeometry x="480" y="240" width="120" height="120" as="geometry" />
        </mxCell>
        <mxCell id="LRJpE0YDbChc6pXYvuXD-35" value="" style="endArrow=none;html=1;rounded=0;entryX=1.002;entryY=0.335;entryDx=0;entryDy=0;entryPerimeter=0;" edge="1" parent="WIyWlLk6GJQsqaUBKTNV-1">
          <mxGeometry width="50" height="50" relative="1" as="geometry">
            <mxPoint x="480" y="270" as="sourcePoint" />
            <mxPoint x="600.24" y="270.20000000000005" as="targetPoint" />
          </mxGeometry>
        </mxCell>
        <mxCell id="LRJpE0YDbChc6pXYvuXD-36" value="Missions (game_id)" style="text;html=1;align=center;verticalAlign=middle;whiteSpace=wrap;rounded=0;" vertex="1" parent="WIyWlLk6GJQsqaUBKTNV-1">
          <mxGeometry x="510" y="240" width="60" height="30" as="geometry" />
        </mxCell>
        <mxCell id="LRJpE0YDbChc6pXYvuXD-37" value="title" style="text;html=1;align=left;verticalAlign=middle;whiteSpace=wrap;rounded=0;" vertex="1" parent="WIyWlLk6GJQsqaUBKTNV-1">
          <mxGeometry x="480" y="270" width="120" height="30" as="geometry" />
        </mxCell>
        <mxCell id="LRJpE0YDbChc6pXYvuXD-38" value="objective" style="text;html=1;align=left;verticalAlign=middle;whiteSpace=wrap;rounded=0;" vertex="1" parent="WIyWlLk6GJQsqaUBKTNV-1">
          <mxGeometry x="480" y="300" width="120" height="30" as="geometry" />
        </mxCell>
        <mxCell id="LRJpE0YDbChc6pXYvuXD-39" value="mission_type" style="text;html=1;align=left;verticalAlign=middle;whiteSpace=wrap;rounded=0;" vertex="1" parent="WIyWlLk6GJQsqaUBKTNV-1">
          <mxGeometry x="480" y="330" width="120" height="30" as="geometry" />
        </mxCell>
        <mxCell id="LRJpE0YDbChc6pXYvuXD-40" value="" style="endArrow=classic;html=1;rounded=0;" edge="1" parent="WIyWlLk6GJQsqaUBKTNV-1">
          <mxGeometry width="50" height="50" relative="1" as="geometry">
            <mxPoint x="600" y="254.71000000000004" as="sourcePoint" />
            <mxPoint x="680" y="254.71000000000004" as="targetPoint" />
          </mxGeometry>
        </mxCell>
        <mxCell id="LRJpE0YDbChc6pXYvuXD-41" value="" style="rounded=0;whiteSpace=wrap;html=1;" vertex="1" parent="WIyWlLk6GJQsqaUBKTNV-1">
          <mxGeometry x="680" y="240" width="120" height="120" as="geometry" />
        </mxCell>
        <mxCell id="LRJpE0YDbChc6pXYvuXD-42" value="" style="endArrow=none;html=1;rounded=0;entryX=1.002;entryY=0.335;entryDx=0;entryDy=0;entryPerimeter=0;" edge="1" parent="WIyWlLk6GJQsqaUBKTNV-1">
          <mxGeometry width="50" height="50" relative="1" as="geometry">
            <mxPoint x="680" y="270" as="sourcePoint" />
            <mxPoint x="800.24" y="270.20000000000005" as="targetPoint" />
          </mxGeometry>
        </mxCell>
        <mxCell id="LRJpE0YDbChc6pXYvuXD-43" value="Vehicles (game_id)" style="text;html=1;align=center;verticalAlign=middle;whiteSpace=wrap;rounded=0;" vertex="1" parent="WIyWlLk6GJQsqaUBKTNV-1">
          <mxGeometry x="710" y="240" width="60" height="30" as="geometry" />
        </mxCell>
        <mxCell id="LRJpE0YDbChc6pXYvuXD-44" value="name" style="text;html=1;align=left;verticalAlign=middle;whiteSpace=wrap;rounded=0;" vertex="1" parent="WIyWlLk6GJQsqaUBKTNV-1">
          <mxGeometry x="680" y="270" width="120" height="30" as="geometry" />
        </mxCell>
        <mxCell id="LRJpE0YDbChc6pXYvuXD-45" value="type" style="text;html=1;align=left;verticalAlign=middle;whiteSpace=wrap;rounded=0;" vertex="1" parent="WIyWlLk6GJQsqaUBKTNV-1">
          <mxGeometry x="680" y="300" width="120" height="30" as="geometry" />
        </mxCell>
        <mxCell id="LRJpE0YDbChc6pXYvuXD-46" value="description" style="text;html=1;align=left;verticalAlign=middle;whiteSpace=wrap;rounded=0;" vertex="1" parent="WIyWlLk6GJQsqaUBKTNV-1">
          <mxGeometry x="680" y="330" width="120" height="30" as="geometry" />
        </mxCell>
        <mxCell id="LRJpE0YDbChc6pXYvuXD-47" value="" style="endArrow=classic;html=1;rounded=0;" edge="1" parent="WIyWlLk6GJQsqaUBKTNV-1">
          <mxGeometry width="50" height="50" relative="1" as="geometry">
            <mxPoint x="800" y="254.71000000000004" as="sourcePoint" />
            <mxPoint x="880" y="254.71000000000004" as="targetPoint" />
          </mxGeometry>
        </mxCell>
        <mxCell id="LRJpE0YDbChc6pXYvuXD-48" value="" style="rounded=0;whiteSpace=wrap;html=1;" vertex="1" parent="WIyWlLk6GJQsqaUBKTNV-1">
          <mxGeometry x="880" y="240" width="120" height="120" as="geometry" />
        </mxCell>
        <mxCell id="LRJpE0YDbChc6pXYvuXD-49" value="" style="endArrow=none;html=1;rounded=0;entryX=1.002;entryY=0.335;entryDx=0;entryDy=0;entryPerimeter=0;" edge="1" parent="WIyWlLk6GJQsqaUBKTNV-1">
          <mxGeometry width="50" height="50" relative="1" as="geometry">
            <mxPoint x="880" y="270" as="sourcePoint" />
            <mxPoint x="1000.24" y="270.20000000000005" as="targetPoint" />
          </mxGeometry>
        </mxCell>
        <mxCell id="LRJpE0YDbChc6pXYvuXD-50" value="Characters (base_loc)" style="text;html=1;align=center;verticalAlign=middle;whiteSpace=wrap;rounded=0;" vertex="1" parent="WIyWlLk6GJQsqaUBKTNV-1">
          <mxGeometry x="910" y="240" width="60" height="30" as="geometry" />
        </mxCell>
        <mxCell id="LRJpE0YDbChc6pXYvuXD-51" value="name" style="text;html=1;align=left;verticalAlign=middle;whiteSpace=wrap;rounded=0;" vertex="1" parent="WIyWlLk6GJQsqaUBKTNV-1">
          <mxGeometry x="880" y="270" width="120" height="30" as="geometry" />
        </mxCell>
        <mxCell id="LRJpE0YDbChc6pXYvuXD-55" value="alias" style="text;html=1;align=left;verticalAlign=middle;whiteSpace=wrap;rounded=0;" vertex="1" parent="WIyWlLk6GJQsqaUBKTNV-1">
          <mxGeometry x="880" y="300" width="120" height="30" as="geometry" />
        </mxCell>
        <mxCell id="LRJpE0YDbChc6pXYvuXD-56" value="role" style="text;html=1;align=left;verticalAlign=middle;whiteSpace=wrap;rounded=0;" vertex="1" parent="WIyWlLk6GJQsqaUBKTNV-1">
          <mxGeometry x="880" y="330" width="120" height="30" as="geometry" />
        </mxCell>
      </root>
    </mxGraphModel>
  </diagram>
</mxfile>
